# Blender v3.5.0 OBJ File: 'Player_R_arm.blend'
# www.blender.org
mtllib Enemy_R_arm.mtl
o 立方体
v 0.000317 -0.239216 0.150585
v 0.000317 0.261565 0.150585
v 0.000317 -0.239216 -0.149675
v 0.000317 0.261565 -0.149675
v 0.498978 -0.507069 -0.000000
vt 0.625000 0.000000
vt 0.375000 0.250000
vt 0.375000 0.000000
vt 0.625000 0.250000
vt 0.375000 0.500000
vt 0.625000 0.750000
vt 0.625000 1.000000
vt 0.375000 1.000000
vt 0.125000 0.500000
vt 0.375000 0.750000
vt 0.125000 0.750000
vt 0.625000 0.500000
vt 0.875000 0.500000
vt 0.875000 0.750000
vn -1.0000 0.0000 0.0000
vn 0.2875 0.0000 -0.9578
vn 0.2891 0.0000 0.9573
vn -0.4732 -0.8810 0.0000
vn 0.8389 0.5443 -0.0000
usemtl None
s off
f 2/1/1 3/2/1 1/3/1
f 3/2/2 4/4/2 5/5/2
f 5/6/3 2/7/3 1/8/3
f 3/9/4 5/10/4 1/11/4
f 5/12/5 4/13/5 2/14/5
f 2/1/1 4/4/1 3/2/1
