# Blender v3.6.0 OBJ File: 'Boss.blend'
# www.blender.org
mtllib Boss.mtl
o Cube
v 0.898719 2.000000 -0.904623
v 0.902412 0.000000 -0.905049
v 0.898719 2.000000 0.904623
v 0.902412 0.000000 0.905049
v -0.898719 2.000000 -0.904623
v -0.902412 0.000000 -0.905049
v -0.898719 2.000000 0.904623
v -0.902412 0.000000 0.905049
v 1.000000 1.898865 -0.901555
v -0.901555 1.898865 1.000000
v 0.901555 1.898865 1.000000
v -1.000000 1.898865 -0.901555
v -0.901731 0.000000 -0.905049
v -0.901731 2.000000 0.904623
v -0.901731 0.000000 0.905049
v -0.901731 2.000000 -0.904623
v -0.901731 1.898865 -1.000000
v -0.901731 1.898865 1.000000
v 1.000000 0.104373 -0.901555
v 0.901555 0.104373 1.000000
v -1.000000 0.104373 -0.901555
v -0.901555 0.104373 1.000000
v -0.901731 0.104373 1.000000
v -0.901731 0.104373 -1.000000
v 0.900275 0.000000 0.905049
v 0.900275 2.000000 -0.904623
v 0.900275 1.898865 -1.000000
v 0.900275 0.000000 -0.902412
v 0.900275 2.000000 0.904623
v 0.900275 1.898865 1.000000
v 0.900275 0.104373 1.000000
v 0.900275 0.104373 -1.000000
v -0.902412 0.000000 0.904929
v 0.898719 2.000000 0.904929
v -0.898719 2.000000 0.904929
v 0.902412 0.000000 0.904929
v 1.000000 1.898865 0.904929
v -1.000000 1.898865 0.904929
v -0.901731 0.000000 0.904929
v -0.901731 2.000000 0.904929
v -1.000000 0.104373 0.904929
v 1.000000 0.104373 0.904929
v 0.900275 2.000000 0.904929
v 0.900275 0.000000 0.904929
v -0.901093 2.000000 -0.898792
v 0.902412 0.000000 -0.898792
v -1.000000 1.898865 -0.898792
v -1.000000 0.104373 -0.898792
v -0.902412 0.000000 -0.898792
v 0.898719 2.000000 -0.898792
v 1.000000 1.898865 -0.898792
v -0.901731 0.000000 -0.898792
v -0.901731 2.000000 -0.898792
v 1.000000 0.104373 -0.898792
v 0.900275 2.000000 -0.898792
v 0.900275 0.000000 -0.898792
vt 0.355894 0.693791
vt 0.355948 0.694327
vt 0.355894 0.694327
vt 0.694870 0.000000
vt 0.694902 0.017997
vt 0.694870 0.017997
vt 0.676861 0.000000
vt 0.677352 0.017997
vt 0.676861 0.017997
vt 0.677974 0.355915
vt 0.678355 0.355894
vt 0.678355 0.355915
vt 0.017997 0.355894
vt 0.000000 0.337871
vt 0.017997 0.338376
vt 0.695406 0.346742
vt 0.695406 0.322004
vt 0.708151 0.334723
vt 0.017997 0.373640
vt 0.337321 0.355894
vt 0.337321 0.373640
vt 0.337321 0.338376
vt 0.337321 0.355894
vt 0.677352 0.337321
vt 0.676861 0.337321
vt 0.694902 0.337321
vt 0.694870 0.337321
vt 0.017997 0.338148
vt 0.337321 0.017487
vt 0.337321 0.338148
vt 0.694870 0.337321
vt 0.677898 0.000000
vt 0.694870 0.017997
vt 0.999016 0.355915
vt 0.999137 0.355894
vt 0.999137 0.355915
vt 0.000000 0.338148
vt 0.017997 0.017487
vt 0.714241 0.000000
vt 0.714296 0.320661
vt 0.714241 0.320661
vt 0.355894 0.694422
vt 0.337321 0.694301
vt 0.355894 0.694301
vt 0.355894 0.017487
vt 0.355894 0.338148
vt 0.337321 0.017518
vt 0.355894 0.017365
vt 0.676861 0.355894
vt 0.677974 0.355894
vt 0.355894 0.338528
vt 0.355894 0.338528
vt 0.355894 0.373259
vt 0.355894 0.373640
vt 0.355948 0.693791
vt 0.356003 0.694068
vt 0.355948 0.694068
vt 0.695098 0.355323
vt 0.695147 0.337325
vt 0.694870 0.355320
vt 0.017997 0.694301
vt 0.000000 0.694301
vt 0.999016 0.355894
vt 0.678355 0.676882
vt 0.999016 0.676882
vt 0.713965 0.320967
vt 0.714241 0.000000
vt 0.714241 0.320967
vt 0.357007 0.675218
vt 0.677974 0.693791
vt 0.357007 0.693791
vt 0.337321 -0.000000
vt 0.355894 0.017365
vt 0.677974 0.998962
vt 0.998636 0.677996
vt 0.998636 0.998962
vt 0.999137 0.676882
vt 0.017997 0.017518
vt 0.357007 0.355894
vt 0.677974 0.675218
vt 0.695406 0.320967
vt 0.713429 0.000000
vt 0.713429 0.320967
vt 0.677974 0.676882
vt -0.000000 0.018023
vt 0.017997 -0.000000
vt 0.713851 0.320967
vt 0.713965 0.000000
vt 0.713965 0.320967
vt 0.713965 0.322004
vt 0.678355 0.677526
vt 0.713429 0.321458
vt 0.356516 0.355894
vt 0.356516 0.675218
vt 0.999016 0.677996
vt 0.999137 0.677996
vt 0.677974 1.000000
vt 0.998636 1.000000
vt 0.355894 0.693791
vt 0.713965 0.322004
vt 0.714241 0.322004
vt 0.355894 0.337321
vt 0.355894 0.355894
vt 0.355894 0.017997
vt 0.355948 0.693791
vt 0.695406 0.000000
vt 0.677898 0.000000
vt 0.677974 0.355894
vt 0.000000 0.337871
vt 0.695406 0.322004
vt 0.017997 0.355894
vt -0.000000 0.017487
vt 0.714296 0.000000
vt 0.337321 0.711788
vt 0.356003 0.693791
vt 0.694870 0.337321
vt -0.000000 0.373640
vt 0.713965 0.000000
vt 0.677974 0.677996
vt 0.677974 0.355894
vt 0.695406 0.000000
vt -0.000000 0.018023
vt 0.713429 0.000000
vt 0.713429 0.322004
vt 0.677974 0.677996
vt 0.355894 0.000000
vn 0.0000 1.0000 0.0000
vn 0.0000 -0.6861 -0.7275
vn -0.7149 0.6992 0.0000
vn 0.0000 -1.0000 0.0000
vn 0.5697 0.5723 0.5899
vn 0.5804 0.5634 -0.5880
vn 0.7025 0.0000 -0.7117
vn 0.6947 0.0000 0.7193
vn -1.0000 0.0000 0.0000
vn 0.0000 0.0000 -1.0000
vn 0.0000 0.0000 1.0000
vn -0.7077 0.0000 -0.7065
vn -0.5890 0.5545 -0.5879
vn 0.0000 0.6861 0.7275
vn 0.0000 -0.6729 -0.7398
vn 0.0000 -0.6729 0.7397
vn 0.0000 -0.6730 0.7397
vn -0.7305 -0.6830 0.0000
vn 0.7304 -0.6830 0.0000
vn -0.6696 -0.5072 -0.5425
vn 0.0011 -0.6830 -0.7304
vn 0.0000 0.6861 -0.7275
vn -0.7304 -0.6830 0.0000
vn -0.6947 0.0000 0.7193
vn 1.0000 0.0000 0.0000
vn 0.7066 0.7076 0.0000
vn -0.5703 0.5711 0.5905
vn 0.7305 -0.6830 0.0000
vn -0.6829 0.6755 -0.2780
vn -0.7065 -0.7077 0.0000
vn 0.0000 -0.6861 0.7275
vn 0.0000 0.0303 0.9995
vn -0.5966 -0.5379 -0.5956
vn 0.0000 0.6730 -0.7397
vn 0.5828 -0.5442 0.6035
vn 0.5936 -0.5349 -0.6013
vn 0.0000 -0.6729 -0.7397
vn -0.5828 -0.5442 0.6035
vn 0.9996 -0.0282 0.0000
vn -0.7066 0.7076 0.0009
usemtl Material
s off
f 35/1/1 14/2/1 40/3/1
f 14/4/2 10/5/2 18/6/2
f 45/7/3 12/8/3 47/9/3
f 36/10/4 25/11/4 44/12/4
f 37/13/5 3/14/5 11/15/5
f 27/16/6 1/17/6 9/18/6
f 27/19/7 19/20/7 32/21/7
f 37/13/8 20/22/8 42/23/8
f 47/9/9 21/24/9 48/25/9
f 18/6/10 22/26/10 23/27/10
f 30/28/11 23/29/11 31/30/11
f 12/8/12 24/31/12 21/24/12
f 12/8/13 16/32/13 17/33/13
f 39/34/4 8/35/4 33/36/4
f 29/37/14 18/38/14 30/28/14
f 40/39/4 29/40/4 43/41/4
f 6/42/15 24/43/15 13/44/15
f 31/30/16 15/45/16 25/46/16
f 15/45/17 22/47/17 8/48/17
f 49/49/18 21/24/18 6/50/18
f 42/23/19 4/51/19 36/52/19
f 32/21/20 2/53/20 28/54/20
f 13/44/21 32/21/21 28/54/21
f 20/22/16 25/46/16 4/51/16
f 43/55/1 3/56/1 34/57/1
f 11/58/14 29/59/14 30/60/14
f 11/15/11 31/30/11 20/22/11
f 17/61/10 32/21/10 24/43/10
f 16/62/22 27/19/22 17/61/22
f 44/12/4 15/63/4 39/34/4
f 56/64/4 39/34/4 52/65/4
f 55/66/4 34/67/4 50/68/4
f 54/69/19 36/70/19 46/71/19
f 8/48/23 41/72/23 33/73/23
f 53/74/1 43/75/1 55/76/1
f 52/65/4 33/36/4 49/77/4
f 10/78/24 41/72/24 22/47/24
f 51/79/25 42/80/25 54/69/25
f 50/81/26 37/82/26 51/83/26
f 46/84/4 44/12/4 56/64/4
f 10/78/27 35/85/27 38/86/27
f 45/87/4 40/88/4 53/89/4
f 16/90/4 45/87/4 53/89/4
f 28/91/4 46/84/4 56/64/4
f 9/92/26 50/81/26 51/83/26
f 9/93/25 54/69/25 19/94/25
f 13/95/4 49/77/4 6/96/4
f 16/97/1 55/76/1 26/98/1
f 19/94/28 46/71/28 2/99/28
f 26/100/4 50/68/4 1/101/4
f 28/91/4 52/65/4 13/95/4
f 41/102/23 49/49/23 33/103/23
f 38/104/9 48/25/9 41/102/9
f 38/104/3 45/7/3 47/9/3
f 35/1/1 7/105/1 14/2/1
f 14/4/2 7/106/2 10/5/2
f 45/7/29 5/107/29 12/8/29
f 36/10/4 4/108/4 25/11/4
f 37/13/30 34/109/30 3/14/30
f 27/16/31 26/110/31 1/17/31
f 27/19/7 9/111/7 19/20/7
f 37/13/8 11/15/8 20/22/8
f 47/9/9 12/8/9 21/24/9
f 18/6/10 10/5/10 22/26/10
f 30/28/11 18/38/11 23/29/11
f 12/8/12 17/33/12 24/31/12
f 12/8/32 5/107/32 16/32/32
f 39/34/4 15/63/4 8/35/4
f 29/37/14 14/112/14 18/38/14
f 40/39/4 14/113/4 29/40/4
f 6/42/33 21/114/33 24/43/33
f 31/30/16 23/29/16 15/45/16
f 15/45/34 23/29/34 22/47/34
f 49/49/23 48/25/23 21/24/23
f 42/23/35 20/22/35 4/51/35
f 32/21/36 19/20/36 2/53/36
f 13/44/37 24/43/37 32/21/37
f 20/22/16 31/30/16 25/46/16
f 43/55/1 29/115/1 3/56/1
f 11/58/2 3/116/2 29/59/2
f 11/15/11 30/28/11 31/30/11
f 17/61/10 27/19/10 32/21/10
f 16/62/22 26/117/22 27/19/22
f 44/12/4 25/11/4 15/63/4
f 56/64/4 44/12/4 39/34/4
f 55/66/4 43/118/4 34/67/4
f 54/69/19 42/80/19 36/70/19
f 8/48/38 22/47/38 41/72/38
f 53/74/1 40/119/1 43/75/1
f 52/65/4 39/34/4 33/36/4
f 10/78/24 38/86/24 41/72/24
f 51/79/25 37/120/25 42/80/25
f 50/81/26 34/121/26 37/82/26
f 46/84/4 36/10/4 44/12/4
f 10/78/39 7/122/39 35/85/39
f 45/87/4 35/123/4 40/88/4
f 16/90/4 5/124/4 45/87/4
f 28/91/4 2/125/4 46/84/4
f 9/92/26 1/17/26 50/81/26
f 9/93/25 51/79/25 54/69/25
f 13/95/4 52/65/4 49/77/4
f 16/97/1 53/74/1 55/76/1
f 19/94/19 54/69/19 46/71/19
f 26/100/4 55/66/4 50/68/4
f 28/91/4 56/64/4 52/65/4
f 41/102/23 48/25/23 49/49/23
f 38/104/9 47/9/9 48/25/9
f 38/104/40 35/126/40 45/7/40
